<svg width="60" height="60" viewBox="0 0 60 60" fill="none" xmlns="http://www.w3.org/2000/svg">
<path d="M1.56 5.76001V26.28L57.84 5.76001H1.56Z" fill="#4ECDC4"/>
<path d="M58.08 5.76001H57.84L1.56 26.28V53.16L58.08 32.52V5.76001Z" fill="#46B8B0"/>
<path d="M57.6 55.44H0.959991V6.11999C0.959991 5.27999 1.67999 4.67999 2.39999 4.67999C3.11999 4.67999 3.83999 5.39999 3.83999 6.11999V52.44H57.6C58.44 52.44 59.04 53.16 59.04 53.88C59.04 54.6 58.44 55.44 57.6 55.44Z" fill="#031326"/>
<path d="M47.52 30.36C41.88 30.36 37.44 34.92 37.44 40.44C37.44 45.96 42 50.52 47.52 50.52C53.16 50.52 57.6 45.96 57.6 40.44C57.6 34.92 53.04 30.36 47.52 30.36V30.36ZM41.4 40.44C41.4 39 42.48 37.68 43.92 37.56H46.8C46.92 37.56 47.04 37.44 47.04 37.32C47.04 37.2 46.92 37.08 46.8 37.08H44.52C44.52 35.52 45.84 34.2 47.4 34.2C48.96 34.2 50.28 35.52 50.28 37.08V37.2C50.16 38.76 48.96 39.96 47.4 39.96C45.6 39.96 44.04 41.4 43.92 43.2C42.48 43.2 41.4 42 41.4 40.44V40.44ZM50.88 43.32H48.12C48 43.32 47.88 43.44 47.88 43.56C47.88 43.68 48 43.8 48.12 43.8H50.4C50.4 45.36 49.08 46.68 47.52 46.68C45.96 46.68 44.64 45.36 44.64 43.8V43.68C44.76 42.12 45.96 40.92 47.52 40.92C49.32 40.92 50.88 39.48 51 37.68C52.44 37.8 53.64 39 53.64 40.56C53.64 42 52.32 43.32 50.88 43.32V43.32Z" fill="#031326"/>
<path d="M47.64 45.12C47.64 45.36 47.88 45.6 48.12 45.6C48.36 45.6 48.6 45.36 48.6 45.12C48.6 44.88 48.36 44.64 48.12 44.64C47.88 44.52 47.64 44.76 47.64 45.12ZM47.28 35.88C47.28 35.64 47.04 35.4 46.8 35.4C46.56 35.4 46.32 35.64 46.32 35.88C46.32 36.12 46.56 36.36 46.8 36.36C47.04 36.36 47.28 36.12 47.28 35.88ZM54 11.4C52.44 11.4 51.24 12.6 51.24 14.16C51.24 14.88 51.48 15.48 51.96 16.08L47.52 22.56C47.04 22.2 46.44 21.96 45.84 21.96C44.88 21.96 44.16 22.44 43.68 23.04L40.44 21.96C40.32 20.52 39.12 19.32 37.68 19.32C36.12 19.32 34.92 20.52 34.92 22.08C34.92 22.56 35.04 23.04 35.28 23.52L29.4 30.6C29.04 30.48 28.68 30.36 28.2 30.36C26.64 30.36 25.44 31.56 25.44 33.12C25.44 33.6 25.56 34.08 25.8 34.44L21 39.6C20.52 39.24 20.04 39.12 19.44 39.12C18.84 39.12 18.24 39.36 17.88 39.6L14.52 37.2C14.64 36.84 14.76 36.6 14.76 36.24C14.76 34.68 13.56 33.48 12 33.48C10.44 33.48 9.23999 34.68 9.23999 36.24C9.23999 36.72 9.35999 37.08 9.59999 37.56L1.91999 45.72C1.55999 46.08 1.55999 46.68 1.91999 47.04C2.03999 47.16 2.27999 47.28 2.51999 47.28C2.75999 47.28 2.99999 47.16 3.11999 47.04L10.8 38.88C11.16 39 11.52 39.12 12 39.12C12.48 39.12 12.96 39 13.44 38.76L17.04 41.28C16.8 41.4 16.8 41.64 16.8 42C16.8 43.56 18 44.76 19.56 44.76C21.12 44.76 22.32 43.56 22.32 42C22.32 41.76 22.32 41.52 22.2 41.28L27.36 35.76C27.72 35.88 28.08 36 28.44 36C30 36 31.2 34.8 31.2 33.24C31.2 32.76 31.08 32.4 30.84 32.04L36.72 24.84C37.08 24.96 37.32 25.08 37.68 25.08C38.64 25.08 39.48 24.6 39.96 23.88L43.08 24.84C43.08 26.28 44.28 27.6 45.84 27.6C47.4 27.6 48.6 26.4 48.6 24.84V24.24L53.52 16.92H54C55.56 16.92 56.76 15.72 56.76 14.16C56.76 12.6 55.56 11.4 54 11.4V11.4ZM11.88 37.32C11.4 37.32 10.92 36.84 10.92 36.36C10.92 35.88 11.4 35.4 11.88 35.4C12.36 35.4 12.84 35.88 12.84 36.36C12.84 36.84 12.48 37.32 11.88 37.32ZM19.56 42.96C19.08 42.96 18.6 42.48 18.6 42C18.6 41.52 19.08 41.04 19.56 41.04C20.04 41.04 20.52 41.52 20.52 42C20.52 42.48 20.04 42.96 19.56 42.96ZM28.44 34.2C27.96 34.2 27.48 33.72 27.48 33.24C27.48 32.76 27.96 32.28 28.44 32.28C28.92 32.28 29.4 32.76 29.4 33.24C29.4 33.72 28.92 34.2 28.44 34.2ZM37.8 23.16C37.32 23.16 36.84 22.68 36.84 22.2C36.84 21.72 37.32 21.24 37.8 21.24C38.28 21.24 38.76 21.72 38.76 22.2C38.76 22.8 38.28 23.16 37.8 23.16ZM45.96 25.68C45.48 25.68 45 25.2 45 24.72C45 24.24 45.48 23.76 45.96 23.76C46.44 23.76 46.92 24.24 46.92 24.72C46.92 25.2 46.44 25.68 45.96 25.68ZM54 15.12C53.52 15.12 53.04 14.64 53.04 14.16C53.04 13.68 53.52 13.2 54 13.2C54.48 13.2 54.96 13.68 54.96 14.16C54.96 14.64 54.6 15.12 54 15.12Z" fill="#031326"/>
</svg>
